<?xml version="1.0" encoding="utf-8"?>
<!-- Generator: Adobe Illustrator 19.0.1, SVG Export Plug-In . SVG Version: 6.00 Build 0)  -->
<svg version="1.1" id="Capa_1" xmlns="http://www.w3.org/2000/svg" xmlns:xlink="http://www.w3.org/1999/xlink" x="0px" y="0px"
	 viewBox="290 -157 612 346" style="enable-background:new 290 -157 612 346;" xml:space="preserve">
<style type="text/css">
	.st0{fill:#FFFFFF;}
</style>
<g>
	<g>
		<path class="st0" d="M894.3-95.3c4.3,0,7.7-3.6,7.7-7.7v-40.2c0-4.3-3.3-7.7-7.7-7.7H297.8c-4.3,0-7.7,3.6-7.7,7.7v40.2
			c0,4.3,3.3,7.7,7.7,7.7H894.3L894.3-95.3z"/>
		<path class="st0" d="M290,36.1c0,4.3,3.3,7.7,7.7,7.7h596.5c4.3,0,7.7-3.6,7.7-7.7V-4.1c0-4.3-3.3-7.7-7.7-7.7H297.7
			c-4.3,0-7.7,3.6-7.7,7.7V36.1z"/>
		<path class="st0" d="M290,175.2c0,4.3,3.3,7.7,7.7,7.7h596.5c4.3,0,7.7-3.6,7.7-7.7V135c0-4.3-3.3-7.7-7.7-7.7H297.7
			c-4.3,0-7.7,3.6-7.7,7.7V175.2z"/>
	</g>
</g>
</svg>
